<?xml version="1.0" encoding="UTF-8"?>
<!DOCTYPE svg PUBLIC "-//W3C//DTD SVG 1.1//EN" "http://www.w3.org/Graphics/SVG/1.1/DTD/svg11.dtd">
<svg xmlns="http://www.w3.org/2000/svg" version="1.1" width="1000px" height="628px" style="shape-rendering:geometricPrecision; text-rendering:geometricPrecision; image-rendering:optimizeQuality; fill-rule:evenodd; clip-rule:evenodd" xmlns:xlink="http://www.w3.org/1999/xlink">
<g><path style="opacity:1" fill="#fefefe" d="M -0.5,-0.5 C 332.833,-0.5 666.167,-0.5 999.5,-0.5C 999.5,208.833 999.5,418.167 999.5,627.5C 666.167,627.5 332.833,627.5 -0.5,627.5C -0.5,418.167 -0.5,208.833 -0.5,-0.5 Z"/></g>
<g><path style="opacity:1" fill="#62d6bf" d="M 483.5,50.5 C 483.167,123.833 482.833,197.167 482.5,270.5C 479.833,270.5 477.167,270.5 474.5,270.5C 472.973,270.573 471.973,269.906 471.5,268.5C 474.598,268.587 474.932,268.087 472.5,267C 475.167,266.333 475.167,265.667 472.5,265C 475.167,264.333 475.167,263.667 472.5,263C 475.167,262.333 475.167,261.667 472.5,261C 475.167,260.333 475.167,259.667 472.5,259C 475.167,258.333 475.167,257.667 472.5,257C 475.167,256.333 475.167,255.667 472.5,255C 475.167,254.333 475.167,253.667 472.5,253C 475.167,252.333 475.167,251.667 472.5,251C 475.167,250.333 475.167,249.667 472.5,249C 475.167,248.333 475.167,247.667 472.5,247C 475.167,246.333 475.167,245.667 472.5,245C 475.167,244.333 475.167,243.667 472.5,243C 475.167,242.333 475.167,241.667 472.5,241C 475.167,240.333 475.167,239.667 472.5,239C 475.167,238.333 475.167,237.667 472.5,237C 475.167,236.333 475.167,235.667 472.5,235C 475.167,234.333 475.167,233.667 472.5,233C 475.167,232.333 475.167,231.667 472.5,231C 475.167,230.333 475.167,229.667 472.5,229C 475.167,228.333 475.167,227.667 472.5,227C 475.167,226.333 475.167,225.667 472.5,225C 475.167,224.333 475.167,223.667 472.5,223C 475.167,222.333 475.167,221.667 472.5,221C 475.167,220.333 475.167,219.667 472.5,219C 475.167,218.333 475.167,217.667 472.5,217C 475.167,216.333 475.167,215.667 472.5,215C 475.167,214.333 475.167,213.667 472.5,213C 475.167,212.333 475.167,211.667 472.5,211C 475.167,210.333 475.167,209.667 472.5,209C 475.167,208.333 475.167,207.667 472.5,207C 475.167,206.333 475.167,205.667 472.5,205C 475.167,204.333 475.167,203.667 472.5,203C 475.167,202.333 475.167,201.667 472.5,201C 475.167,200.333 475.167,199.667 472.5,199C 475.167,198.333 475.167,197.667 472.5,197C 475.167,196.333 475.167,195.667 472.5,195C 475.167,194.333 475.167,193.667 472.5,193C 475.167,192.333 475.167,191.667 472.5,191C 475.167,190.333 475.167,189.667 472.5,189C 475.167,188.333 475.167,187.667 472.5,187C 475.167,186.333 475.167,185.667 472.5,185C 475.167,184.333 475.167,183.667 472.5,183C 475.167,182.333 475.167,181.667 472.5,181C 475.167,180.333 475.167,179.667 472.5,179C 475.167,178.333 475.167,177.667 472.5,177C 475.167,176.333 475.167,175.667 472.5,175C 475.167,174.333 475.167,173.667 472.5,173C 475.167,172.333 475.167,171.667 472.5,171C 475.167,170.333 475.167,169.667 472.5,169C 475.167,168.333 475.167,167.667 472.5,167C 475.167,166.333 475.167,165.667 472.5,165C 475.167,164.333 475.167,163.667 472.5,163C 475.167,162.333 475.167,161.667 472.5,161C 475.167,160.333 475.167,159.667 472.5,159C 475.167,158.333 475.167,157.667 472.5,157C 475.167,156.333 475.167,155.667 472.5,155C 475.167,154.333 475.167,153.667 472.5,153C 475.167,152.333 475.167,151.667 472.5,151C 475.167,150.333 475.167,149.667 472.5,149C 475.167,148.333 475.167,147.667 472.5,147C 475.167,146.333 475.167,145.667 472.5,145C 475.167,144.333 475.167,143.667 472.5,143C 475.167,142.333 475.167,141.667 472.5,141C 475.167,140.333 475.167,139.667 472.5,139C 475.167,138.333 475.167,137.667 472.5,137C 475.167,136.333 475.167,135.667 472.5,135C 475.167,134.333 475.167,133.667 472.5,133C 475.167,132.333 475.167,131.667 472.5,131C 475.167,130.333 475.167,129.667 472.5,129C 475.167,128.333 475.167,127.667 472.5,127C 475.167,126.333 475.167,125.667 472.5,125C 475.167,124.333 475.167,123.667 472.5,123C 475.167,122.333 475.167,121.667 472.5,121C 475.167,120.333 475.167,119.667 472.5,119C 475.167,118.333 475.167,117.667 472.5,117C 475.167,116.333 475.167,115.667 472.5,115C 475.167,114.333 475.167,113.667 472.5,113C 475.167,112.333 475.167,111.667 472.5,111C 475.167,110.333 475.167,109.667 472.5,109C 475.167,108.333 475.167,107.667 472.5,107C 475.167,106.333 475.167,105.667 472.5,105C 475.167,104.333 475.167,103.667 472.5,103C 475.167,102.333 475.167,101.667 472.5,101C 475.167,100.333 475.167,99.6667 472.5,99C 475.167,98.3333 475.167,97.6667 472.5,97C 475.167,96.3333 475.167,95.6667 472.5,95C 475.167,94.3333 475.167,93.6667 472.5,93C 475.167,92.3333 475.167,91.6667 472.5,91C 475.167,90.3333 475.167,89.6667 472.5,89C 475.167,88.3333 475.167,87.6667 472.5,87C 475.167,86.3333 475.167,85.6667 472.5,85C 475.167,84.3333 475.167,83.6667 472.5,83C 475.167,82.3333 475.167,81.6667 472.5,81C 475.167,80.3333 475.167,79.6667 472.5,79C 475.167,78.3333 475.167,77.6667 472.5,77C 475.167,76.3333 475.167,75.6667 472.5,75C 475.167,74.3333 475.167,73.6667 472.5,73C 475.167,72.3333 475.167,71.6667 472.5,71C 475.167,70.3333 475.167,69.6667 472.5,69C 475.167,68.3333 475.167,67.6667 472.5,67C 475.167,66.3333 475.167,65.6667 472.5,65C 475.167,64.3333 475.167,63.6667 472.5,63C 475.167,62.3333 475.167,61.6667 472.5,61C 475.167,60.3333 475.167,59.6667 472.5,59C 475.167,58.3333 475.167,57.6667 472.5,57C 475.167,56.3333 475.167,55.6667 472.5,55C 474.742,53.9926 474.408,53.1593 471.5,52.5C 471.918,51.7784 472.584,51.2784 473.5,51C 476.817,50.5017 480.15,50.335 483.5,50.5 Z"/></g>
<g><path style="opacity:1" fill="#60d1c4" d="M 483.5,50.5 C 487.167,50.5 490.833,50.5 494.5,50.5C 495.229,123.758 495.562,197.092 495.5,270.5C 491.167,270.5 486.833,270.5 482.5,270.5C 482.833,197.167 483.167,123.833 483.5,50.5 Z"/></g>
<g><path style="opacity:1" fill="#5ecdc8" d="M 494.5,50.5 C 496.5,50.5 498.5,50.5 500.5,50.5C 500.918,51.2216 501.584,51.7216 502.5,52C 501.833,52.3333 501.167,52.6667 500.5,53C 505.833,53.6667 505.833,54.3333 500.5,55C 503.167,55.6667 503.167,56.3333 500.5,57C 505.833,57.6667 505.833,58.3333 500.5,59C 503.167,59.6667 503.167,60.3333 500.5,61C 505.833,61.6667 505.833,62.3333 500.5,63C 503.167,63.6667 503.167,64.3333 500.5,65C 505.833,65.6667 505.833,66.3333 500.5,67C 503.167,67.6667 503.167,68.3333 500.5,69C 505.833,69.6667 505.833,70.3333 500.5,71C 503.167,71.6667 503.167,72.3333 500.5,73C 505.833,73.6667 505.833,74.3333 500.5,75C 503.167,75.6667 503.167,76.3333 500.5,77C 505.833,77.6667 505.833,78.3333 500.5,79C 503.167,79.6667 503.167,80.3333 500.5,81C 505.833,81.6667 505.833,82.3333 500.5,83C 503.167,83.6667 503.167,84.3333 500.5,85C 505.833,85.6667 505.833,86.3333 500.5,87C 503.167,87.6667 503.167,88.3333 500.5,89C 505.833,89.6667 505.833,90.3333 500.5,91C 503.167,91.6667 503.167,92.3333 500.5,93C 505.833,93.6667 505.833,94.3333 500.5,95C 503.167,95.6667 503.167,96.3333 500.5,97C 505.833,97.6667 505.833,98.3333 500.5,99C 503.167,99.6667 503.167,100.333 500.5,101C 505.833,101.667 505.833,102.333 500.5,103C 503.167,103.667 503.167,104.333 500.5,105C 505.833,105.667 505.833,106.333 500.5,107C 503.167,107.667 503.167,108.333 500.5,109C 505.833,109.667 505.833,110.333 500.5,111C 503.167,111.667 503.167,112.333 500.5,113C 505.833,113.667 505.833,114.333 500.5,115C 503.167,115.667 503.167,116.333 500.5,117C 505.833,117.667 505.833,118.333 500.5,119C 503.167,119.667 503.167,120.333 500.5,121C 505.833,121.667 505.833,122.333 500.5,123C 503.167,123.667 503.167,124.333 500.5,125C 505.833,125.667 505.833,126.333 500.5,127C 503.167,127.667 503.167,128.333 500.5,129C 505.833,129.667 505.833,130.333 500.5,131C 503.167,131.667 503.167,132.333 500.5,133C 505.833,133.667 505.833,134.333 500.5,135C 503.167,135.667 503.167,136.333 500.5,137C 505.833,137.667 505.833,138.333 500.5,139C 503.167,139.667 503.167,140.333 500.5,141C 505.833,141.667 505.833,142.333 500.5,143C 503.167,143.667 503.167,144.333 500.5,145C 505.833,145.667 505.833,146.333 500.5,147C 503.167,147.667 503.167,148.333 500.5,149C 505.833,149.667 505.833,150.333 500.5,151C 503.167,151.667 503.167,152.333 500.5,153C 505.833,153.667 505.833,154.333 500.5,155C 503.167,155.667 503.167,156.333 500.5,157C 505.833,157.667 505.833,158.333 500.5,159C 503.167,159.667 503.167,160.333 500.5,161C 505.833,161.667 505.833,162.333 500.5,163C 503.167,163.667 503.167,164.333 500.5,165C 505.833,165.667 505.833,166.333 500.5,167C 503.167,167.667 503.167,168.333 500.5,169C 505.833,169.667 505.833,170.333 500.5,171C 503.167,171.667 503.167,172.333 500.5,173C 505.833,173.667 505.833,174.333 500.5,175C 503.167,175.667 503.167,176.333 500.5,177C 505.833,177.667 505.833,178.333 500.5,179C 503.167,179.667 503.167,180.333 500.5,181C 505.833,181.667 505.833,182.333 500.5,183C 503.167,183.667 503.167,184.333 500.5,185C 505.833,185.667 505.833,186.333 500.5,187C 503.167,187.667 503.167,188.333 500.5,189C 505.833,189.667 505.833,190.333 500.5,191C 503.167,191.667 503.167,192.333 500.5,193C 505.833,193.667 505.833,194.333 500.5,195C 503.167,195.667 503.167,196.333 500.5,197C 505.833,197.667 505.833,198.333 500.5,199C 503.167,199.667 503.167,200.333 500.5,201C 505.833,201.667 505.833,202.333 500.5,203C 503.167,203.667 503.167,204.333 500.5,205C 505.833,205.667 505.833,206.333 500.5,207C 503.167,207.667 503.167,208.333 500.5,209C 505.833,209.667 505.833,210.333 500.5,211C 503.167,211.667 503.167,212.333 500.5,213C 505.833,213.667 505.833,214.333 500.5,215C 503.167,215.667 503.167,216.333 500.5,217C 505.833,217.667 505.833,218.333 500.5,219C 503.167,219.667 503.167,220.333 500.5,221C 505.833,221.667 505.833,222.333 500.5,223C 503.167,223.667 503.167,224.333 500.5,225C 505.833,225.667 505.833,226.333 500.5,227C 503.167,227.667 503.167,228.333 500.5,229C 505.833,229.667 505.833,230.333 500.5,231C 503.167,231.667 503.167,232.333 500.5,233C 505.833,233.667 505.833,234.333 500.5,235C 503.167,235.667 503.167,236.333 500.5,237C 505.833,237.667 505.833,238.333 500.5,239C 503.167,239.667 503.167,240.333 500.5,241C 505.833,241.667 505.833,242.333 500.5,243C 503.167,243.667 503.167,244.333 500.5,245C 505.833,245.667 505.833,246.333 500.5,247C 503.167,247.667 503.167,248.333 500.5,249C 505.833,249.667 505.833,250.333 500.5,251C 503.167,251.667 503.167,252.333 500.5,253C 505.833,253.667 505.833,254.333 500.5,255C 503.167,255.667 503.167,256.333 500.5,257C 505.833,257.667 505.833,258.333 500.5,259C 503.167,259.667 503.167,260.333 500.5,261C 505.833,261.667 505.833,262.333 500.5,263C 503.167,263.667 503.167,264.333 500.5,265C 505.833,265.667 505.833,266.333 500.5,267C 503.167,267.667 503.167,268.333 500.5,269C 501.833,269.333 503.167,269.667 504.5,270C 501.518,270.498 498.518,270.665 495.5,270.5C 495.562,197.092 495.229,123.758 494.5,50.5 Z"/></g>
<g><path style="opacity:1" fill="#5ecacc" d="M 500.5,50.5 C 504.833,50.5 509.167,50.5 513.5,50.5C 512.931,123.715 512.598,196.882 512.5,270C 516.486,270.499 520.486,270.666 524.5,270.5C 507.833,271.833 491.167,271.833 474.5,270.5C 477.167,270.5 479.833,270.5 482.5,270.5C 486.833,270.5 491.167,270.5 495.5,270.5C 498.518,270.665 501.518,270.498 504.5,270C 503.167,269.667 501.833,269.333 500.5,269C 503.167,268.333 503.167,267.667 500.5,267C 505.833,266.333 505.833,265.667 500.5,265C 503.167,264.333 503.167,263.667 500.5,263C 505.833,262.333 505.833,261.667 500.5,261C 503.167,260.333 503.167,259.667 500.5,259C 505.833,258.333 505.833,257.667 500.5,257C 503.167,256.333 503.167,255.667 500.5,255C 505.833,254.333 505.833,253.667 500.5,253C 503.167,252.333 503.167,251.667 500.5,251C 505.833,250.333 505.833,249.667 500.5,249C 503.167,248.333 503.167,247.667 500.5,247C 505.833,246.333 505.833,245.667 500.5,245C 503.167,244.333 503.167,243.667 500.5,243C 505.833,242.333 505.833,241.667 500.5,241C 503.167,240.333 503.167,239.667 500.5,239C 505.833,238.333 505.833,237.667 500.5,237C 503.167,236.333 503.167,235.667 500.5,235C 505.833,234.333 505.833,233.667 500.5,233C 503.167,232.333 503.167,231.667 500.5,231C 505.833,230.333 505.833,229.667 500.5,229C 503.167,228.333 503.167,227.667 500.5,227C 505.833,226.333 505.833,225.667 500.5,225C 503.167,224.333 503.167,223.667 500.5,223C 505.833,222.333 505.833,221.667 500.5,221C 503.167,220.333 503.167,219.667 500.5,219C 505.833,218.333 505.833,217.667 500.5,217C 503.167,216.333 503.167,215.667 500.5,215C 505.833,214.333 505.833,213.667 500.5,213C 503.167,212.333 503.167,211.667 500.5,211C 505.833,210.333 505.833,209.667 500.5,209C 503.167,208.333 503.167,207.667 500.5,207C 505.833,206.333 505.833,205.667 500.5,205C 503.167,204.333 503.167,203.667 500.5,203C 505.833,202.333 505.833,201.667 500.5,201C 503.167,200.333 503.167,199.667 500.5,199C 505.833,198.333 505.833,197.667 500.5,197C 503.167,196.333 503.167,195.667 500.5,195C 505.833,194.333 505.833,193.667 500.5,193C 503.167,192.333 503.167,191.667 500.5,191C 505.833,190.333 505.833,189.667 500.5,189C 503.167,188.333 503.167,187.667 500.5,187C 505.833,186.333 505.833,185.667 500.5,185C 503.167,184.333 503.167,183.667 500.5,183C 505.833,182.333 505.833,181.667 500.5,181C 503.167,180.333 503.167,179.667 500.5,179C 505.833,178.333 505.833,177.667 500.5,177C 503.167,176.333 503.167,175.667 500.5,175C 505.833,174.333 505.833,173.667 500.5,173C 503.167,172.333 503.167,171.667 500.5,171C 505.833,170.333 505.833,169.667 500.5,169C 503.167,168.333 503.167,167.667 500.5,167C 505.833,166.333 505.833,165.667 500.5,165C 503.167,164.333 503.167,163.667 500.5,163C 505.833,162.333 505.833,161.667 500.5,161C 503.167,160.333 503.167,159.667 500.5,159C 505.833,158.333 505.833,157.667 500.5,157C 503.167,156.333 503.167,155.667 500.5,155C 505.833,154.333 505.833,153.667 500.5,153C 503.167,152.333 503.167,151.667 500.5,151C 505.833,150.333 505.833,149.667 500.5,149C 503.167,148.333 503.167,147.667 500.5,147C 505.833,146.333 505.833,145.667 500.5,145C 503.167,144.333 503.167,143.667 500.5,143C 505.833,142.333 505.833,141.667 500.5,141C 503.167,140.333 503.167,139.667 500.5,139C 505.833,138.333 505.833,137.667 500.5,137C 503.167,136.333 503.167,135.667 500.5,135C 505.833,134.333 505.833,133.667 500.5,133C 503.167,132.333 503.167,131.667 500.5,131C 505.833,130.333 505.833,129.667 500.5,129C 503.167,128.333 503.167,127.667 500.5,127C 505.833,126.333 505.833,125.667 500.5,125C 503.167,124.333 503.167,123.667 500.5,123C 505.833,122.333 505.833,121.667 500.5,121C 503.167,120.333 503.167,119.667 500.5,119C 505.833,118.333 505.833,117.667 500.5,117C 503.167,116.333 503.167,115.667 500.5,115C 505.833,114.333 505.833,113.667 500.5,113C 503.167,112.333 503.167,111.667 500.5,111C 505.833,110.333 505.833,109.667 500.5,109C 503.167,108.333 503.167,107.667 500.5,107C 505.833,106.333 505.833,105.667 500.5,105C 503.167,104.333 503.167,103.667 500.5,103C 505.833,102.333 505.833,101.667 500.5,101C 503.167,100.333 503.167,99.6667 500.5,99C 505.833,98.3333 505.833,97.6667 500.5,97C 503.167,96.3333 503.167,95.6667 500.5,95C 505.833,94.3333 505.833,93.6667 500.5,93C 503.167,92.3333 503.167,91.6667 500.5,91C 505.833,90.3333 505.833,89.6667 500.5,89C 503.167,88.3333 503.167,87.6667 500.5,87C 505.833,86.3333 505.833,85.6667 500.5,85C 503.167,84.3333 503.167,83.6667 500.5,83C 505.833,82.3333 505.833,81.6667 500.5,81C 503.167,80.3333 503.167,79.6667 500.5,79C 505.833,78.3333 505.833,77.6667 500.5,77C 503.167,76.3333 503.167,75.6667 500.5,75C 505.833,74.3333 505.833,73.6667 500.5,73C 503.167,72.3333 503.167,71.6667 500.5,71C 505.833,70.3333 505.833,69.6667 500.5,69C 503.167,68.3333 503.167,67.6667 500.5,67C 505.833,66.3333 505.833,65.6667 500.5,65C 503.167,64.3333 503.167,63.6667 500.5,63C 505.833,62.3333 505.833,61.6667 500.5,61C 503.167,60.3333 503.167,59.6667 500.5,59C 505.833,58.3333 505.833,57.6667 500.5,57C 503.167,56.3333 503.167,55.6667 500.5,55C 505.833,54.3333 505.833,53.6667 500.5,53C 501.167,52.6667 501.833,52.3333 502.5,52C 501.584,51.7216 500.918,51.2216 500.5,50.5 Z"/></g>
<g><path style="opacity:1" fill="#5ac4d1" d="M 513.5,50.5 C 518.032,50.1818 522.366,50.5151 526.5,51.5C 525.751,52.531 525.085,53.6976 524.5,55C 525.43,126.754 525.764,198.587 525.5,270.5C 525.167,270.5 524.833,270.5 524.5,270.5C 520.486,270.666 516.486,270.499 512.5,270C 512.598,196.882 512.931,123.715 513.5,50.5 Z"/></g>
<g><path style="opacity:1" fill="#64d9bc" d="M 471.5,52.5 C 474.408,53.1593 474.742,53.9926 472.5,55C 475.167,55.6667 475.167,56.3333 472.5,57C 475.167,57.6667 475.167,58.3333 472.5,59C 475.167,59.6667 475.167,60.3333 472.5,61C 475.167,61.6667 475.167,62.3333 472.5,63C 475.167,63.6667 475.167,64.3333 472.5,65C 475.167,65.6667 475.167,66.3333 472.5,67C 475.167,67.6667 475.167,68.3333 472.5,69C 475.167,69.6667 475.167,70.3333 472.5,71C 475.167,71.6667 475.167,72.3333 472.5,73C 475.167,73.6667 475.167,74.3333 472.5,75C 475.167,75.6667 475.167,76.3333 472.5,77C 475.167,77.6667 475.167,78.3333 472.5,79C 475.167,79.6667 475.167,80.3333 472.5,81C 475.167,81.6667 475.167,82.3333 472.5,83C 475.167,83.6667 475.167,84.3333 472.5,85C 475.167,85.6667 475.167,86.3333 472.5,87C 475.167,87.6667 475.167,88.3333 472.5,89C 475.167,89.6667 475.167,90.3333 472.5,91C 475.167,91.6667 475.167,92.3333 472.5,93C 475.167,93.6667 475.167,94.3333 472.5,95C 475.167,95.6667 475.167,96.3333 472.5,97C 475.167,97.6667 475.167,98.3333 472.5,99C 475.167,99.6667 475.167,100.333 472.5,101C 475.167,101.667 475.167,102.333 472.5,103C 475.167,103.667 475.167,104.333 472.5,105C 475.167,105.667 475.167,106.333 472.5,107C 475.167,107.667 475.167,108.333 472.5,109C 475.167,109.667 475.167,110.333 472.5,111C 475.167,111.667 475.167,112.333 472.5,113C 475.167,113.667 475.167,114.333 472.5,115C 475.167,115.667 475.167,116.333 472.5,117C 475.167,117.667 475.167,118.333 472.5,119C 475.167,119.667 475.167,120.333 472.5,121C 475.167,121.667 475.167,122.333 472.5,123C 475.167,123.667 475.167,124.333 472.5,125C 475.167,125.667 475.167,126.333 472.5,127C 475.167,127.667 475.167,128.333 472.5,129C 475.167,129.667 475.167,130.333 472.5,131C 475.167,131.667 475.167,132.333 472.5,133C 475.167,133.667 475.167,134.333 472.5,135C 475.167,135.667 475.167,136.333 472.5,137C 475.167,137.667 475.167,138.333 472.5,139C 475.167,139.667 475.167,140.333 472.5,141C 475.167,141.667 475.167,142.333 472.5,143C 475.167,143.667 475.167,144.333 472.5,145C 475.167,145.667 475.167,146.333 472.5,147C 475.167,147.667 475.167,148.333 472.5,149C 475.167,149.667 475.167,150.333 472.5,151C 475.167,151.667 475.167,152.333 472.5,153C 475.167,153.667 475.167,154.333 472.5,155C 475.167,155.667 475.167,156.333 472.5,157C 475.167,157.667 475.167,158.333 472.5,159C 475.167,159.667 475.167,160.333 472.5,161C 475.167,161.667 475.167,162.333 472.5,163C 475.167,163.667 475.167,164.333 472.5,165C 475.167,165.667 475.167,166.333 472.5,167C 475.167,167.667 475.167,168.333 472.5,169C 475.167,169.667 475.167,170.333 472.5,171C 475.167,171.667 475.167,172.333 472.5,173C 475.167,173.667 475.167,174.333 472.5,175C 475.167,175.667 475.167,176.333 472.5,177C 475.167,177.667 475.167,178.333 472.5,179C 475.167,179.667 475.167,180.333 472.5,181C 475.167,181.667 475.167,182.333 472.5,183C 475.167,183.667 475.167,184.333 472.5,185C 475.167,185.667 475.167,186.333 472.5,187C 475.167,187.667 475.167,188.333 472.5,189C 475.167,189.667 475.167,190.333 472.5,191C 475.167,191.667 475.167,192.333 472.5,193C 475.167,193.667 475.167,194.333 472.5,195C 475.167,195.667 475.167,196.333 472.5,197C 475.167,197.667 475.167,198.333 472.5,199C 475.167,199.667 475.167,200.333 472.5,201C 475.167,201.667 475.167,202.333 472.5,203C 475.167,203.667 475.167,204.333 472.5,205C 475.167,205.667 475.167,206.333 472.5,207C 475.167,207.667 475.167,208.333 472.5,209C 475.167,209.667 475.167,210.333 472.5,211C 475.167,211.667 475.167,212.333 472.5,213C 475.167,213.667 475.167,214.333 472.5,215C 475.167,215.667 475.167,216.333 472.5,217C 475.167,217.667 475.167,218.333 472.5,219C 475.167,219.667 475.167,220.333 472.5,221C 475.167,221.667 475.167,222.333 472.5,223C 475.167,223.667 475.167,224.333 472.5,225C 475.167,225.667 475.167,226.333 472.5,227C 475.167,227.667 475.167,228.333 472.5,229C 475.167,229.667 475.167,230.333 472.5,231C 475.167,231.667 475.167,232.333 472.5,233C 475.167,233.667 475.167,234.333 472.5,235C 475.167,235.667 475.167,236.333 472.5,237C 475.167,237.667 475.167,238.333 472.5,239C 475.167,239.667 475.167,240.333 472.5,241C 475.167,241.667 475.167,242.333 472.5,243C 475.167,243.667 475.167,244.333 472.5,245C 475.167,245.667 475.167,246.333 472.5,247C 475.167,247.667 475.167,248.333 472.5,249C 475.167,249.667 475.167,250.333 472.5,251C 475.167,251.667 475.167,252.333 472.5,253C 475.167,253.667 475.167,254.333 472.5,255C 475.167,255.667 475.167,256.333 472.5,257C 475.167,257.667 475.167,258.333 472.5,259C 475.167,259.667 475.167,260.333 472.5,261C 475.167,261.667 475.167,262.333 472.5,263C 475.167,263.667 475.167,264.333 472.5,265C 475.167,265.667 475.167,266.333 472.5,267C 474.932,268.087 474.598,268.587 471.5,268.5C 470.034,267.653 469.2,266.32 469,264.5C 468.832,247.662 468.332,230.995 467.5,214.5C 467.414,213.504 467.748,212.671 468.5,212C 466.487,211.125 466.487,209.791 468.5,208C 466.487,207.125 466.487,205.791 468.5,204C 466.487,203.125 466.487,201.791 468.5,200C 466.487,199.125 466.487,197.791 468.5,196C 466.487,195.125 466.487,193.791 468.5,192C 466.487,191.125 466.487,189.791 468.5,188C 466.487,187.125 466.487,185.791 468.5,184C 466.487,183.125 466.487,181.791 468.5,180C 466.487,179.125 466.487,177.791 468.5,176C 466.487,175.125 466.487,173.791 468.5,172C 466.487,171.125 466.487,169.791 468.5,168C 466.487,167.125 466.487,165.791 468.5,164C 466.487,163.125 466.487,161.791 468.5,160C 466.487,159.125 466.487,157.791 468.5,156C 466.487,155.125 466.487,153.791 468.5,152C 466.487,151.125 466.487,149.791 468.5,148C 466.487,147.125 466.487,145.791 468.5,144C 466.487,143.125 466.487,141.791 468.5,140C 466.487,139.125 466.487,137.791 468.5,136C 466.487,135.125 466.487,133.791 468.5,132C 466.487,131.125 466.487,129.791 468.5,128C 466.487,127.125 466.487,125.791 468.5,124C 466.487,123.125 466.487,121.791 468.5,120C 466.487,119.125 466.487,117.791 468.5,116C 466.487,115.125 466.487,113.791 468.5,112C 466.487,111.125 466.487,109.791 468.5,108C 467.244,107.583 466.577,106.75 466.5,105.5C 467.117,105.611 467.617,105.944 468,106.5C 468.333,89.5 468.667,72.5 469,55.5C 469.377,54.0577 470.21,53.0577 471.5,52.5 Z"/></g>
<g><path style="opacity:1" fill="#58c0d5" d="M 526.5,51.5 C 527.794,52.2899 528.961,53.2899 530,54.5C 530.168,72.0048 530.668,89.3382 531.5,106.5C 529.94,108.129 530.273,109.296 532.5,110C 531.167,110.333 529.833,110.667 528.5,111C 531.167,111.667 531.167,112.333 528.5,113C 533.833,113.667 533.833,114.333 528.5,115C 529.833,116 531.167,117 532.5,118C 531.167,118.333 529.833,118.667 528.5,119C 531.167,119.667 531.167,120.333 528.5,121C 533.833,121.667 533.833,122.333 528.5,123C 529.833,124 531.167,125 532.5,126C 531.167,126.333 529.833,126.667 528.5,127C 531.167,127.667 531.167,128.333 528.5,129C 533.833,129.667 533.833,130.333 528.5,131C 529.833,132 531.167,133 532.5,134C 531.167,134.333 529.833,134.667 528.5,135C 531.167,135.667 531.167,136.333 528.5,137C 533.833,137.667 533.833,138.333 528.5,139C 529.833,140 531.167,141 532.5,142C 531.167,142.333 529.833,142.667 528.5,143C 531.167,143.667 531.167,144.333 528.5,145C 533.833,145.667 533.833,146.333 528.5,147C 529.833,148 531.167,149 532.5,150C 531.167,150.333 529.833,150.667 528.5,151C 531.167,151.667 531.167,152.333 528.5,153C 533.833,153.667 533.833,154.333 528.5,155C 529.833,156 531.167,157 532.5,158C 531.167,158.333 529.833,158.667 528.5,159C 531.167,159.667 531.167,160.333 528.5,161C 533.833,161.667 533.833,162.333 528.5,163C 529.833,164 531.167,165 532.5,166C 531.167,166.333 529.833,166.667 528.5,167C 531.167,167.667 531.167,168.333 528.5,169C 533.833,169.667 533.833,170.333 528.5,171C 529.833,172 531.167,173 532.5,174C 531.167,174.333 529.833,174.667 528.5,175C 531.167,175.667 531.167,176.333 528.5,177C 533.833,177.667 533.833,178.333 528.5,179C 529.833,180 531.167,181 532.5,182C 531.167,182.333 529.833,182.667 528.5,183C 531.167,183.667 531.167,184.333 528.5,185C 533.833,185.667 533.833,186.333 528.5,187C 529.833,188 531.167,189 532.5,190C 531.167,190.333 529.833,190.667 528.5,191C 531.167,191.667 531.167,192.333 528.5,193C 533.833,193.667 533.833,194.333 528.5,195C 529.833,196 531.167,197 532.5,198C 531.167,198.333 529.833,198.667 528.5,199C 531.167,199.667 531.167,200.333 528.5,201C 533.833,201.667 533.833,202.333 528.5,203C 529.833,204 531.167,205 532.5,206C 531.167,206.333 529.833,206.667 528.5,207C 531.167,207.667 531.167,208.333 528.5,209C 533.833,209.667 533.833,210.333 528.5,211C 530.407,212.069 531.741,213.569 532.5,215.5C 531.883,215.389 531.383,215.056 531,214.5C 530.667,231.833 530.333,249.167 530,266.5C 528.629,268.041 527.129,269.375 525.5,270.5C 525.764,198.587 525.43,126.754 524.5,55C 525.085,53.6976 525.751,52.531 526.5,51.5 Z"/></g>
<g><path style="opacity:1" fill="#70efa6" d="M 419.5,82.5 C 421.308,82.4914 422.975,82.9914 424.5,84C 423.833,84.3333 423.167,84.6667 422.5,85C 423.728,85.779 424.728,86.779 425.5,88C 424.167,108 424.167,128 425.5,148C 424.929,149.599 423.929,150.766 422.5,151.5C 417.91,149.561 413.577,147.227 409.5,144.5C 410.842,143.207 412.509,142.374 414.5,142C 411.054,140.037 411.054,138.704 414.5,138C 411.054,136.037 411.054,134.704 414.5,134C 411.054,132.037 411.054,130.704 414.5,130C 411.054,128.037 411.054,126.704 414.5,126C 411.054,124.037 411.054,122.704 414.5,122C 411.054,120.037 411.054,118.704 414.5,118C 411.054,116.037 411.054,114.704 414.5,114C 411.054,112.037 411.054,110.704 414.5,110C 411.054,108.037 411.054,106.704 414.5,106C 411.054,104.037 411.054,102.704 414.5,102C 411.054,100.037 411.054,98.7039 414.5,98C 413.1,96.5619 411.433,95.7286 409.5,95.5C 411.067,92.0333 412.901,88.6999 415,85.5C 416.129,83.8588 417.629,82.8588 419.5,82.5 Z"/></g>
<g><path style="opacity:1" fill="#4facea" d="M 586.5,90.5 C 585.244,90.4614 584.244,90.9614 583.5,92C 584.833,110 584.833,128 583.5,146C 584.094,146.464 584.761,146.631 585.5,146.5C 581.167,149.669 576.5,152.336 571.5,154.5C 570.475,153.626 569.808,152.459 569.5,151C 570.833,131 570.833,111 569.5,91C 571.059,88.8314 571.392,86.6648 570.5,84.5C 578.088,79.6054 583.421,81.6054 586.5,90.5 Z"/></g>
<g><path style="opacity:1" fill="#51b1e5" d="M 570.5,84.5 C 571.392,86.6648 571.059,88.8314 569.5,91C 570.833,111 570.833,131 569.5,151C 569.808,152.459 570.475,153.626 571.5,154.5C 568.541,156.441 565.541,158.441 562.5,160.5C 566.062,163.108 569.729,165.441 573.5,167.5C 571.151,167.458 569.818,168.625 569.5,171C 570.833,191 570.833,211 569.5,231C 571.059,233.169 571.392,235.335 570.5,237.5C 566.882,235.863 563.549,233.863 560.5,231.5C 560.423,230.25 559.756,229.417 558.5,229C 559.167,228.667 559.833,228.333 560.5,228C 555.167,227.333 555.167,226.667 560.5,226C 557.833,225.333 557.833,224.667 560.5,224C 555.167,223.333 555.167,222.667 560.5,222C 557.833,221.333 557.833,220.667 560.5,220C 555.167,219.333 555.167,218.667 560.5,218C 557.833,217.333 557.833,216.667 560.5,216C 555.167,215.333 555.167,214.667 560.5,214C 557.833,213.333 557.833,212.667 560.5,212C 555.167,211.333 555.167,210.667 560.5,210C 557.833,209.333 557.833,208.667 560.5,208C 555.167,207.333 555.167,206.667 560.5,206C 557.833,205.333 557.833,204.667 560.5,204C 555.167,203.333 555.167,202.667 560.5,202C 557.833,201.333 557.833,200.667 560.5,200C 555.167,199.333 555.167,198.667 560.5,198C 557.833,197.333 557.833,196.667 560.5,196C 555.167,195.333 555.167,194.667 560.5,194C 557.833,193.333 557.833,192.667 560.5,192C 555.167,191.333 555.167,190.667 560.5,190C 557.833,189.333 557.833,188.667 560.5,188C 555.167,187.333 555.167,186.667 560.5,186C 557.833,185.333 557.833,184.667 560.5,184C 555.167,183.333 555.167,182.667 560.5,182C 557.833,181.333 557.833,180.667 560.5,180C 555.167,179.333 555.167,178.667 560.5,178C 557.833,177.333 557.833,176.667 560.5,176C 555.167,175.333 555.167,174.667 560.5,174C 557.833,173.333 557.833,172.667 560.5,172C 555.167,171.333 555.167,170.667 560.5,170C 557.833,169.333 557.833,168.667 560.5,168C 555.167,167.333 555.167,166.667 560.5,166C 557.833,165.333 557.833,164.667 560.5,164C 555.167,163.333 555.167,162.667 560.5,162C 557.833,161.333 557.833,160.667 560.5,160C 555.167,159.333 555.167,158.667 560.5,158C 557.833,157.333 557.833,156.667 560.5,156C 555.167,155.333 555.167,154.667 560.5,154C 557.833,153.333 557.833,152.667 560.5,152C 555.167,151.333 555.167,150.667 560.5,150C 557.833,149.333 557.833,148.667 560.5,148C 555.167,147.333 555.167,146.667 560.5,146C 557.833,145.333 557.833,144.667 560.5,144C 555.167,143.333 555.167,142.667 560.5,142C 557.833,141.333 557.833,140.667 560.5,140C 555.167,139.333 555.167,138.667 560.5,138C 557.833,137.333 557.833,136.667 560.5,136C 555.167,135.333 555.167,134.667 560.5,134C 557.833,133.333 557.833,132.667 560.5,132C 555.167,131.333 555.167,130.667 560.5,130C 557.833,129.333 557.833,128.667 560.5,128C 555.167,127.333 555.167,126.667 560.5,126C 557.833,125.333 557.833,124.667 560.5,124C 555.167,123.333 555.167,122.667 560.5,122C 557.833,121.333 557.833,120.667 560.5,120C 555.167,119.333 555.167,118.667 560.5,118C 557.833,117.333 557.833,116.667 560.5,116C 555.167,115.333 555.167,114.667 560.5,114C 557.833,113.333 557.833,112.667 560.5,112C 555.167,111.333 555.167,110.667 560.5,110C 557.833,109.333 557.833,108.667 560.5,108C 555.167,107.333 555.167,106.667 560.5,106C 557.833,105.333 557.833,104.667 560.5,104C 555.167,103.333 555.167,102.667 560.5,102C 557.833,101.333 557.833,100.667 560.5,100C 555.167,99.3333 555.167,98.6667 560.5,98C 557.833,97.3333 557.833,96.6667 560.5,96C 555.167,95.3333 555.167,94.6667 560.5,94C 557.833,93.3333 557.833,92.6667 560.5,92C 559.584,91.7216 558.918,91.2216 558.5,90.5C 562.272,88.0661 566.272,86.0661 570.5,84.5 Z"/></g>
<g><path style="opacity:1" fill="#4da7ef" d="M 586.5,90.5 C 588.818,94.4645 591.152,98.4645 593.5,102.5C 590.402,102.413 590.068,102.913 592.5,104C 589.833,104.667 589.833,105.333 592.5,106C 589.833,106.667 589.833,107.333 592.5,108C 589.833,108.667 589.833,109.333 592.5,110C 589.833,110.667 589.833,111.333 592.5,112C 589.833,112.667 589.833,113.333 592.5,114C 589.833,114.667 589.833,115.333 592.5,116C 589.833,116.667 589.833,117.333 592.5,118C 589.833,118.667 589.833,119.333 592.5,120C 589.833,120.667 589.833,121.333 592.5,122C 589.833,122.667 589.833,123.333 592.5,124C 589.833,124.667 589.833,125.333 592.5,126C 589.833,126.667 589.833,127.333 592.5,128C 589.833,128.667 589.833,129.333 592.5,130C 589.833,130.667 589.833,131.333 592.5,132C 589.833,132.667 589.833,133.333 592.5,134C 589.833,134.667 589.833,135.333 592.5,136C 589.833,136.667 589.833,137.333 592.5,138C 589.833,138.667 589.833,139.333 592.5,140C 590.068,141.087 590.402,141.587 593.5,141.5C 591.206,143.653 588.54,145.32 585.5,146.5C 584.761,146.631 584.094,146.464 583.5,146C 584.833,128 584.833,110 583.5,92C 584.244,90.9614 585.244,90.4614 586.5,90.5 Z"/></g>
<g><path style="opacity:1" fill="#69e3b2" d="M 440.5,90.5 C 444.5,92.8333 448.5,95.1667 452.5,97.5C 453.794,99.2648 454.794,101.098 455.5,103C 455.5,104.333 455.5,105.667 455.5,107C 452.833,108.333 452.833,109.667 455.5,111C 455.5,112.333 455.5,113.667 455.5,115C 452.833,116.333 452.833,117.667 455.5,119C 455.5,120.333 455.5,121.667 455.5,123C 452.833,124.333 452.833,125.667 455.5,127C 455.5,128.333 455.5,129.667 455.5,131C 452.833,132.333 452.833,133.667 455.5,135C 455.5,136.333 455.5,137.667 455.5,139C 452.833,140.333 452.833,141.667 455.5,143C 455.5,144.333 455.5,145.667 455.5,147C 452.833,148.333 452.833,149.667 455.5,151C 455.5,152.333 455.5,153.667 455.5,155C 452.833,156.333 452.833,157.667 455.5,159C 455.5,160.333 455.5,161.667 455.5,163C 452.833,164.333 452.833,165.667 455.5,167C 455.5,168.333 455.5,169.667 455.5,171C 452.833,172.333 452.833,173.667 455.5,175C 455.5,176.333 455.5,177.667 455.5,179C 452.833,180.333 452.833,181.667 455.5,183C 455.5,195 455.5,207 455.5,219C 453.627,219.953 453.294,221.12 454.5,222.5C 449.833,225.167 445.167,227.833 440.5,230.5C 440.227,228.549 440.893,227.049 442.5,226C 439.054,224.037 439.054,222.704 442.5,222C 439.833,220.667 439.833,219.333 442.5,218C 439.054,216.037 439.054,214.704 442.5,214C 439.833,212.667 439.833,211.333 442.5,210C 439.054,208.037 439.054,206.704 442.5,206C 439.833,204.667 439.833,203.333 442.5,202C 439.054,200.037 439.054,198.704 442.5,198C 439.833,196.667 439.833,195.333 442.5,194C 439.054,192.037 439.054,190.704 442.5,190C 439.833,188.667 439.833,187.333 442.5,186C 439.054,184.037 439.054,182.704 442.5,182C 439.833,180.667 439.833,179.333 442.5,178C 439.054,176.037 439.054,174.704 442.5,174C 439.833,172.667 439.833,171.333 442.5,170C 439.054,168.037 439.054,166.704 442.5,166C 439.833,164.667 439.833,163.333 442.5,162C 439.054,160.037 439.054,158.704 442.5,158C 439.833,156.667 439.833,155.333 442.5,154C 439.054,152.037 439.054,150.704 442.5,150C 439.833,148.667 439.833,147.333 442.5,146C 439.054,144.037 439.054,142.704 442.5,142C 439.833,140.667 439.833,139.333 442.5,138C 439.054,136.037 439.054,134.704 442.5,134C 439.833,132.667 439.833,131.333 442.5,130C 439.054,128.037 439.054,126.704 442.5,126C 439.833,124.667 439.833,123.333 442.5,122C 439.054,120.037 439.054,118.704 442.5,118C 439.833,116.667 439.833,115.333 442.5,114C 439.054,112.037 439.054,110.704 442.5,110C 439.833,108.667 439.833,107.333 442.5,106C 439.054,104.037 439.054,102.704 442.5,102C 439.833,100.667 439.833,99.3333 442.5,98C 439.054,96.0372 439.054,94.7039 442.5,94C 441.027,93.2904 440.36,92.1238 440.5,90.5 Z"/></g>
<g><path style="opacity:1" fill="#53b4e1" d="M 558.5,90.5 C 558.918,91.2216 559.584,91.7216 560.5,92C 557.833,92.6667 557.833,93.3333 560.5,94C 555.167,94.6667 555.167,95.3333 560.5,96C 557.833,96.6667 557.833,97.3333 560.5,98C 555.167,98.6667 555.167,99.3333 560.5,100C 557.833,100.667 557.833,101.333 560.5,102C 555.167,102.667 555.167,103.333 560.5,104C 557.833,104.667 557.833,105.333 560.5,106C 555.167,106.667 555.167,107.333 560.5,108C 557.833,108.667 557.833,109.333 560.5,110C 555.167,110.667 555.167,111.333 560.5,112C 557.833,112.667 557.833,113.333 560.5,114C 555.167,114.667 555.167,115.333 560.5,116C 557.833,116.667 557.833,117.333 560.5,118C 555.167,118.667 555.167,119.333 560.5,120C 557.833,120.667 557.833,121.333 560.5,122C 555.167,122.667 555.167,123.333 560.5,124C 557.833,124.667 557.833,125.333 560.5,126C 555.167,126.667 555.167,127.333 560.5,128C 557.833,128.667 557.833,129.333 560.5,130C 555.167,130.667 555.167,131.333 560.5,132C 557.833,132.667 557.833,133.333 560.5,134C 555.167,134.667 555.167,135.333 560.5,136C 557.833,136.667 557.833,137.333 560.5,138C 555.167,138.667 555.167,139.333 560.5,140C 557.833,140.667 557.833,141.333 560.5,142C 555.167,142.667 555.167,143.333 560.5,144C 557.833,144.667 557.833,145.333 560.5,146C 555.167,146.667 555.167,147.333 560.5,148C 557.833,148.667 557.833,149.333 560.5,150C 555.167,150.667 555.167,151.333 560.5,152C 557.833,152.667 557.833,153.333 560.5,154C 555.167,154.667 555.167,155.333 560.5,156C 557.833,156.667 557.833,157.333 560.5,158C 555.167,158.667 555.167,159.333 560.5,160C 557.833,160.667 557.833,161.333 560.5,162C 555.167,162.667 555.167,163.333 560.5,164C 557.833,164.667 557.833,165.333 560.5,166C 555.167,166.667 555.167,167.333 560.5,168C 557.833,168.667 557.833,169.333 560.5,170C 555.167,170.667 555.167,171.333 560.5,172C 557.833,172.667 557.833,173.333 560.5,174C 555.167,174.667 555.167,175.333 560.5,176C 557.833,176.667 557.833,177.333 560.5,178C 555.167,178.667 555.167,179.333 560.5,180C 557.833,180.667 557.833,181.333 560.5,182C 555.167,182.667 555.167,183.333 560.5,184C 557.833,184.667 557.833,185.333 560.5,186C 555.167,186.667 555.167,187.333 560.5,188C 557.833,188.667 557.833,189.333 560.5,190C 555.167,190.667 555.167,191.333 560.5,192C 557.833,192.667 557.833,193.333 560.5,194C 555.167,194.667 555.167,195.333 560.5,196C 557.833,196.667 557.833,197.333 560.5,198C 555.167,198.667 555.167,199.333 560.5,200C 557.833,200.667 557.833,201.333 560.5,202C 555.167,202.667 555.167,203.333 560.5,204C 557.833,204.667 557.833,205.333 560.5,206C 555.167,206.667 555.167,207.333 560.5,208C 557.833,208.667 557.833,209.333 560.5,210C 555.167,210.667 555.167,211.333 560.5,212C 557.833,212.667 557.833,213.333 560.5,214C 555.167,214.667 555.167,215.333 560.5,216C 557.833,216.667 557.833,217.333 560.5,218C 555.167,218.667 555.167,219.333 560.5,220C 557.833,220.667 557.833,221.333 560.5,222C 555.167,222.667 555.167,223.333 560.5,224C 557.833,224.667 557.833,225.333 560.5,226C 555.167,226.667 555.167,227.333 560.5,228C 559.833,228.333 559.167,228.667 558.5,229C 559.756,229.417 560.423,230.25 560.5,231.5C 558.517,230.529 556.517,229.529 554.5,228.5C 554.611,227.883 554.944,227.383 555.5,227C 554.061,226.009 553.061,224.676 552.5,223C 552.736,180.215 552.736,137.382 552.5,94.5C 554.463,93.1798 556.463,91.8465 558.5,90.5 Z"/></g>
<g><path style="opacity:1" fill="#54b8dd" d="M 552.5,94.5 C 552.736,137.382 552.736,180.215 552.5,223C 553.061,224.676 554.061,226.009 555.5,227C 554.944,227.383 554.611,227.883 554.5,228.5C 549.963,226.07 545.63,223.403 541.5,220.5C 541.597,180.713 541.264,141.046 540.5,101.5C 544.136,98.677 548.136,96.3437 552.5,94.5 Z"/></g>
<g><path style="opacity:1" fill="#75f5a1" d="M 409.5,95.5 C 411.433,95.7286 413.1,96.5619 414.5,98C 411.054,98.7039 411.054,100.037 414.5,102C 411.054,102.704 411.054,104.037 414.5,106C 411.054,106.704 411.054,108.037 414.5,110C 411.054,110.704 411.054,112.037 414.5,114C 411.054,114.704 411.054,116.037 414.5,118C 411.054,118.704 411.054,120.037 414.5,122C 411.054,122.704 411.054,124.037 414.5,126C 411.054,126.704 411.054,128.037 414.5,130C 411.054,130.704 411.054,132.037 414.5,134C 411.054,134.704 411.054,136.037 414.5,138C 411.054,138.704 411.054,140.037 414.5,142C 412.509,142.374 410.842,143.207 409.5,144.5C 404.577,141.577 399.577,138.743 394.5,136C 390.925,131.79 390.592,127.29 393.5,122.5C 398.604,113.281 403.937,104.281 409.5,95.5 Z"/></g>
<g><path style="opacity:1" fill="#66ddb8" d="M 452.5,97.5 C 457.158,100.163 461.824,102.829 466.5,105.5C 466.577,106.75 467.244,107.583 468.5,108C 466.487,109.791 466.487,111.125 468.5,112C 466.487,113.791 466.487,115.125 468.5,116C 466.487,117.791 466.487,119.125 468.5,120C 466.487,121.791 466.487,123.125 468.5,124C 466.487,125.791 466.487,127.125 468.5,128C 466.487,129.791 466.487,131.125 468.5,132C 466.487,133.791 466.487,135.125 468.5,136C 466.487,137.791 466.487,139.125 468.5,140C 466.487,141.791 466.487,143.125 468.5,144C 466.487,145.791 466.487,147.125 468.5,148C 466.487,149.791 466.487,151.125 468.5,152C 466.487,153.791 466.487,155.125 468.5,156C 466.487,157.791 466.487,159.125 468.5,160C 466.487,161.791 466.487,163.125 468.5,164C 466.487,165.791 466.487,167.125 468.5,168C 466.487,169.791 466.487,171.125 468.5,172C 466.487,173.791 466.487,175.125 468.5,176C 466.487,177.791 466.487,179.125 468.5,180C 466.487,181.791 466.487,183.125 468.5,184C 466.487,185.791 466.487,187.125 468.5,188C 466.487,189.791 466.487,191.125 468.5,192C 466.487,193.791 466.487,195.125 468.5,196C 466.487,197.791 466.487,199.125 468.5,200C 466.487,201.791 466.487,203.125 468.5,204C 466.487,205.791 466.487,207.125 468.5,208C 466.487,209.791 466.487,211.125 468.5,212C 467.748,212.671 467.414,213.504 467.5,214.5C 463.37,217.403 459.037,220.07 454.5,222.5C 453.294,221.12 453.627,219.953 455.5,219C 455.5,207 455.5,195 455.5,183C 452.833,181.667 452.833,180.333 455.5,179C 455.5,177.667 455.5,176.333 455.5,175C 452.833,173.667 452.833,172.333 455.5,171C 455.5,169.667 455.5,168.333 455.5,167C 452.833,165.667 452.833,164.333 455.5,163C 455.5,161.667 455.5,160.333 455.5,159C 452.833,157.667 452.833,156.333 455.5,155C 455.5,153.667 455.5,152.333 455.5,151C 452.833,149.667 452.833,148.333 455.5,147C 455.5,145.667 455.5,144.333 455.5,143C 452.833,141.667 452.833,140.333 455.5,139C 455.5,137.667 455.5,136.333 455.5,135C 452.833,133.667 452.833,132.333 455.5,131C 455.5,129.667 455.5,128.333 455.5,127C 452.833,125.667 452.833,124.333 455.5,123C 455.5,121.667 455.5,120.333 455.5,119C 452.833,117.667 452.833,116.333 455.5,115C 455.5,113.667 455.5,112.333 455.5,111C 452.833,109.667 452.833,108.333 455.5,107C 455.5,105.667 455.5,104.333 455.5,103C 454.794,101.098 453.794,99.2648 452.5,97.5 Z"/></g>
<g><path style="opacity:1" fill="#56bdd8" d="M 540.5,101.5 C 541.264,141.046 541.597,180.713 541.5,220.5C 538.339,219.087 535.339,217.42 532.5,215.5C 531.741,213.569 530.407,212.069 528.5,211C 533.833,210.333 533.833,209.667 528.5,209C 531.167,208.333 531.167,207.667 528.5,207C 529.833,206.667 531.167,206.333 532.5,206C 531.167,205 529.833,204 528.5,203C 533.833,202.333 533.833,201.667 528.5,201C 531.167,200.333 531.167,199.667 528.5,199C 529.833,198.667 531.167,198.333 532.5,198C 531.167,197 529.833,196 528.5,195C 533.833,194.333 533.833,193.667 528.5,193C 531.167,192.333 531.167,191.667 528.5,191C 529.833,190.667 531.167,190.333 532.5,190C 531.167,189 529.833,188 528.5,187C 533.833,186.333 533.833,185.667 528.5,185C 531.167,184.333 531.167,183.667 528.5,183C 529.833,182.667 531.167,182.333 532.5,182C 531.167,181 529.833,180 528.5,179C 533.833,178.333 533.833,177.667 528.5,177C 531.167,176.333 531.167,175.667 528.5,175C 529.833,174.667 531.167,174.333 532.5,174C 531.167,173 529.833,172 528.5,171C 533.833,170.333 533.833,169.667 528.5,169C 531.167,168.333 531.167,167.667 528.5,167C 529.833,166.667 531.167,166.333 532.5,166C 531.167,165 529.833,164 528.5,163C 533.833,162.333 533.833,161.667 528.5,161C 531.167,160.333 531.167,159.667 528.5,159C 529.833,158.667 531.167,158.333 532.5,158C 531.167,157 529.833,156 528.5,155C 533.833,154.333 533.833,153.667 528.5,153C 531.167,152.333 531.167,151.667 528.5,151C 529.833,150.667 531.167,150.333 532.5,150C 531.167,149 529.833,148 528.5,147C 533.833,146.333 533.833,145.667 528.5,145C 531.167,144.333 531.167,143.667 528.5,143C 529.833,142.667 531.167,142.333 532.5,142C 531.167,141 529.833,140 528.5,139C 533.833,138.333 533.833,137.667 528.5,137C 531.167,136.333 531.167,135.667 528.5,135C 529.833,134.667 531.167,134.333 532.5,134C 531.167,133 529.833,132 528.5,131C 533.833,130.333 533.833,129.667 528.5,129C 531.167,128.333 531.167,127.667 528.5,127C 529.833,126.667 531.167,126.333 532.5,126C 531.167,125 529.833,124 528.5,123C 533.833,122.333 533.833,121.667 528.5,121C 531.167,120.333 531.167,119.667 528.5,119C 529.833,118.667 531.167,118.333 532.5,118C 531.167,117 529.833,116 528.5,115C 533.833,114.333 533.833,113.667 528.5,113C 531.167,112.333 531.167,111.667 528.5,111C 529.833,110.667 531.167,110.333 532.5,110C 530.273,109.296 529.94,108.129 531.5,106.5C 534.366,104.568 537.366,102.901 540.5,101.5 Z"/></g>
<g><path style="opacity:1" fill="#4da4f3" d="M 593.5,102.5 C 599.069,111.059 603.736,120.059 607.5,129.5C 607.444,132.111 606.444,134.278 604.5,136C 601.09,138.372 597.423,140.205 593.5,141.5C 590.402,141.587 590.068,141.087 592.5,140C 589.833,139.333 589.833,138.667 592.5,138C 589.833,137.333 589.833,136.667 592.5,136C 589.833,135.333 589.833,134.667 592.5,134C 589.833,133.333 589.833,132.667 592.5,132C 589.833,131.333 589.833,130.667 592.5,130C 589.833,129.333 589.833,128.667 592.5,128C 589.833,127.333 589.833,126.667 592.5,126C 589.833,125.333 589.833,124.667 592.5,124C 589.833,123.333 589.833,122.667 592.5,122C 589.833,121.333 589.833,120.667 592.5,120C 589.833,119.333 589.833,118.667 592.5,118C 589.833,117.333 589.833,116.667 592.5,116C 589.833,115.333 589.833,114.667 592.5,114C 589.833,113.333 589.833,112.667 592.5,112C 589.833,111.333 589.833,110.667 592.5,110C 589.833,109.333 589.833,108.667 592.5,108C 589.833,107.333 589.833,106.667 592.5,106C 589.833,105.333 589.833,104.667 592.5,104C 590.068,102.913 590.402,102.413 593.5,102.5 Z"/></g>
<g><path style="opacity:1" fill="#6de9ac" d="M 419.5,82.5 C 422.068,81.3569 424.735,81.5236 427.5,83C 431.852,85.5078 436.185,88.0078 440.5,90.5C 440.36,92.1238 441.027,93.2904 442.5,94C 439.054,94.7039 439.054,96.0372 442.5,98C 439.833,99.3333 439.833,100.667 442.5,102C 439.054,102.704 439.054,104.037 442.5,106C 439.833,107.333 439.833,108.667 442.5,110C 439.054,110.704 439.054,112.037 442.5,114C 439.833,115.333 439.833,116.667 442.5,118C 439.054,118.704 439.054,120.037 442.5,122C 439.833,123.333 439.833,124.667 442.5,126C 439.054,126.704 439.054,128.037 442.5,130C 439.833,131.333 439.833,132.667 442.5,134C 439.054,134.704 439.054,136.037 442.5,138C 439.833,139.333 439.833,140.667 442.5,142C 439.054,142.704 439.054,144.037 442.5,146C 439.833,147.333 439.833,148.667 442.5,150C 439.054,150.704 439.054,152.037 442.5,154C 439.833,155.333 439.833,156.667 442.5,158C 439.054,158.704 439.054,160.037 442.5,162C 439.833,163.333 439.833,164.667 442.5,166C 439.054,166.704 439.054,168.037 442.5,170C 439.833,171.333 439.833,172.667 442.5,174C 439.054,174.704 439.054,176.037 442.5,178C 439.833,179.333 439.833,180.667 442.5,182C 439.054,182.704 439.054,184.037 442.5,186C 439.833,187.333 439.833,188.667 442.5,190C 439.054,190.704 439.054,192.037 442.5,194C 439.833,195.333 439.833,196.667 442.5,198C 439.054,198.704 439.054,200.037 442.5,202C 439.833,203.333 439.833,204.667 442.5,206C 439.054,206.704 439.054,208.037 442.5,210C 439.833,211.333 439.833,212.667 442.5,214C 439.054,214.704 439.054,216.037 442.5,218C 439.833,219.333 439.833,220.667 442.5,222C 439.054,222.704 439.054,224.037 442.5,226C 440.893,227.049 440.227,228.549 440.5,230.5C 434.96,233.77 429.293,236.77 423.5,239.5C 423.586,238.504 423.252,237.671 422.5,237C 425.167,236.333 425.167,235.667 422.5,235C 424.18,234.653 425.18,233.653 425.5,232C 424.167,212 424.167,192 425.5,172C 425.252,170.251 424.252,169.418 422.5,169.5C 426.995,166.53 431.662,163.697 436.5,161C 432.026,157.407 427.36,154.241 422.5,151.5C 423.929,150.766 424.929,149.599 425.5,148C 424.167,128 424.167,108 425.5,88C 424.728,86.779 423.728,85.779 422.5,85C 423.167,84.6667 423.833,84.3333 424.5,84C 422.975,82.9914 421.308,82.4914 419.5,82.5 Z"/></g>
<g><path style="opacity:1" fill="#4facea" d="M 573.5,167.5 C 577.864,169.344 581.864,171.677 585.5,174.5C 584.711,174.783 584.044,175.283 583.5,176C 584.833,194 584.833,212 583.5,230C 584.527,230.513 585.527,231.013 586.5,231.5C 583.204,239.154 577.871,241.154 570.5,237.5C 571.392,235.335 571.059,233.169 569.5,231C 570.833,211 570.833,191 569.5,171C 569.818,168.625 571.151,167.458 573.5,167.5 Z"/></g>
<g><path style="opacity:1" fill="#70efa6" d="M 422.5,169.5 C 424.252,169.418 425.252,170.251 425.5,172C 424.167,192 424.167,212 425.5,232C 425.18,233.653 424.18,234.653 422.5,235C 425.167,235.667 425.167,236.333 422.5,237C 423.252,237.671 423.586,238.504 423.5,239.5C 421.345,239.628 419.345,239.128 417.5,238C 413.87,233.901 410.87,229.401 408.5,224.5C 409.496,224.414 410.329,224.748 411,225.5C 411.483,224.552 411.649,223.552 411.5,222.5C 412.552,222.649 413.552,222.483 414.5,222C 411.054,220.037 411.054,218.704 414.5,218C 411.054,216.037 411.054,214.704 414.5,214C 411.054,212.037 411.054,210.704 414.5,210C 411.054,208.037 411.054,206.704 414.5,206C 411.054,204.037 411.054,202.704 414.5,202C 411.054,200.037 411.054,198.704 414.5,198C 411.054,196.037 411.054,194.704 414.5,194C 411.054,192.037 411.054,190.704 414.5,190C 411.054,188.037 411.054,186.704 414.5,186C 411.054,184.037 411.054,182.704 414.5,182C 412.957,179.298 410.624,178.132 407.5,178.5C 412.216,175.137 417.216,172.137 422.5,169.5 Z"/></g>
<g><path style="opacity:1" fill="#4ea8ef" d="M 585.5,174.5 C 588.47,175.653 591.137,177.32 593.5,179.5C 590.592,180.159 590.258,180.993 592.5,182C 589.833,182.667 589.833,183.333 592.5,184C 589.833,184.667 589.833,185.333 592.5,186C 589.833,186.667 589.833,187.333 592.5,188C 589.833,188.667 589.833,189.333 592.5,190C 589.833,190.667 589.833,191.333 592.5,192C 589.833,192.667 589.833,193.333 592.5,194C 589.833,194.667 589.833,195.333 592.5,196C 589.833,196.667 589.833,197.333 592.5,198C 589.833,198.667 589.833,199.333 592.5,200C 589.833,200.667 589.833,201.333 592.5,202C 589.833,202.667 589.833,203.333 592.5,204C 589.833,204.667 589.833,205.333 592.5,206C 589.833,206.667 589.833,207.333 592.5,208C 589.833,208.667 589.833,209.333 592.5,210C 589.833,210.667 589.833,211.333 592.5,212C 589.833,212.667 589.833,213.333 592.5,214C 589.833,214.667 589.833,215.333 592.5,216C 589.833,216.667 589.833,217.333 592.5,218C 590.068,219.087 590.402,219.587 593.5,219.5C 591.163,223.509 588.829,227.509 586.5,231.5C 585.527,231.013 584.527,230.513 583.5,230C 584.833,212 584.833,194 583.5,176C 584.044,175.283 584.711,174.783 585.5,174.5 Z"/></g>
<g><path style="opacity:1" fill="#74f5a0" d="M 407.5,178.5 C 410.624,178.132 412.957,179.298 414.5,182C 411.054,182.704 411.054,184.037 414.5,186C 411.054,186.704 411.054,188.037 414.5,190C 411.054,190.704 411.054,192.037 414.5,194C 411.054,194.704 411.054,196.037 414.5,198C 411.054,198.704 411.054,200.037 414.5,202C 411.054,202.704 411.054,204.037 414.5,206C 411.054,206.704 411.054,208.037 414.5,210C 411.054,210.704 411.054,212.037 414.5,214C 411.054,214.704 411.054,216.037 414.5,218C 411.054,218.704 411.054,220.037 414.5,222C 413.552,222.483 412.552,222.649 411.5,222.5C 411.649,223.552 411.483,224.552 411,225.5C 410.329,224.748 409.496,224.414 408.5,224.5C 403.894,216.054 399.061,207.721 394,199.5C 391.105,195.018 390.938,190.518 393.5,186C 398.062,183.22 402.728,180.72 407.5,178.5 Z"/></g>
<g><path style="opacity:1" fill="#4fa5f3" d="M 593.5,179.5 C 600.812,181.15 605.478,185.483 607.5,192.5C 603.631,201.905 598.964,210.905 593.5,219.5C 590.402,219.587 590.068,219.087 592.5,218C 589.833,217.333 589.833,216.667 592.5,216C 589.833,215.333 589.833,214.667 592.5,214C 589.833,213.333 589.833,212.667 592.5,212C 589.833,211.333 589.833,210.667 592.5,210C 589.833,209.333 589.833,208.667 592.5,208C 589.833,207.333 589.833,206.667 592.5,206C 589.833,205.333 589.833,204.667 592.5,204C 589.833,203.333 589.833,202.667 592.5,202C 589.833,201.333 589.833,200.667 592.5,200C 589.833,199.333 589.833,198.667 592.5,198C 589.833,197.333 589.833,196.667 592.5,196C 589.833,195.333 589.833,194.667 592.5,194C 589.833,193.333 589.833,192.667 592.5,192C 589.833,191.333 589.833,190.667 592.5,190C 589.833,189.333 589.833,188.667 592.5,188C 589.833,187.333 589.833,186.667 592.5,186C 589.833,185.333 589.833,184.667 592.5,184C 589.833,183.333 589.833,182.667 592.5,182C 590.258,180.993 590.592,180.159 593.5,179.5 Z"/></g>
<g><path style="opacity:1" fill="#121212" d="M 229.5,308.5 C 251.836,308.333 274.169,308.5 296.5,309C 339.113,315.896 361.446,340.896 363.5,384C 360.805,428.364 337.471,454.031 293.5,461C 272.169,461.5 250.836,461.667 229.5,461.5C 229.5,410.5 229.5,359.5 229.5,308.5 Z"/></g>
<g><path style="opacity:1" fill="#131313" d="M 643.5,308.5 C 650.2,308.17 656.866,308.503 663.5,309.5C 684.972,359.916 706.639,410.249 728.5,460.5C 720.5,461.833 712.5,461.833 704.5,460.5C 699.5,448.5 694.5,436.5 689.5,424.5C 664.833,423.167 640.167,423.167 615.5,424.5C 610.789,436.805 605.789,448.971 600.5,461C 592.5,461.667 584.5,461.667 576.5,461C 599.249,410.336 621.583,359.503 643.5,308.5 Z"/></g>
<g><path style="opacity:1" fill="#141414" d="M 750.5,307.5 C 766.817,307.629 772.317,315.296 767,330.5C 757,339.5 748.667,338.167 742,326.5C 741.333,323.167 741.333,319.833 742,316.5C 744.362,312.973 747.196,309.973 750.5,307.5 Z"/></g>
<g><path style="opacity:1" fill="#fcfcfc" d="M 249.5,327.5 C 265.206,327.118 280.872,327.618 296.5,329C 326.318,335.462 341.318,353.962 341.5,384.5C 341.637,406.396 332.304,422.896 313.5,434C 305.213,437.873 296.547,440.54 287.5,442C 274.838,442.5 262.171,442.667 249.5,442.5C 249.5,404.167 249.5,365.833 249.5,327.5 Z"/></g>
<g><path style="opacity:1" fill="#fcfcfc" d="M 651.5,335.5 C 652.75,335.577 653.583,336.244 654,337.5C 662.976,360.097 672.142,382.597 681.5,405C 662.158,405.833 642.825,405.666 623.5,404.5C 633.234,381.624 642.567,358.624 651.5,335.5 Z"/></g>
<g><path style="opacity:1" fill="#121212" d="M 409.5,401.5 C 408.503,421.326 408.17,441.326 408.5,461.5C 402.167,461.5 395.833,461.5 389.5,461.5C 389.5,427.5 389.5,393.5 389.5,359.5C 395.833,359.5 402.167,359.5 408.5,359.5C 408.334,364.511 408.501,369.511 409,374.5C 409.717,373.956 410.217,373.289 410.5,372.5C 419.788,359.287 432.455,354.287 448.5,357.5C 448.5,364.5 448.5,371.5 448.5,378.5C 438.371,376.269 428.704,377.435 419.5,382C 413.385,387.063 410.052,393.563 409.5,401.5 Z"/></g>
<g><path style="opacity:1" fill="#121212" d="M 489.5,406.5 C 488.503,424.659 488.17,442.992 488.5,461.5C 482.5,461.5 476.5,461.5 470.5,461.5C 470.5,427.5 470.5,393.5 470.5,359.5C 476.5,359.5 482.5,359.5 488.5,359.5C 488.172,364.875 488.505,370.208 489.5,375.5C 490.107,375.376 490.44,375.043 490.5,374.5C 495.276,365.593 502.61,359.76 512.5,357C 517.554,356.219 522.554,356.386 527.5,357.5C 528.833,364.5 528.833,371.5 527.5,378.5C 504.231,373.796 491.564,383.129 489.5,406.5 Z"/></g>
<g><path style="opacity:1" fill="#979797" d="M 410.5,372.5 C 410.217,373.289 409.717,373.956 409,374.5C 408.501,369.511 408.334,364.511 408.5,359.5C 402.167,359.5 395.833,359.5 389.5,359.5C 389.5,393.5 389.5,427.5 389.5,461.5C 395.833,461.5 402.167,461.5 408.5,461.5C 408.17,441.326 408.503,421.326 409.5,401.5C 409.5,421.833 409.5,442.167 409.5,462.5C 402.5,462.5 395.5,462.5 388.5,462.5C 388.5,427.833 388.5,393.167 388.5,358.5C 395.5,358.5 402.5,358.5 409.5,358.5C 409.181,363.363 409.514,368.03 410.5,372.5 Z"/></g>
<g><path style="opacity:1" fill="#545454" d="M 489.5,359.5 C 489.167,359.5 488.833,359.5 488.5,359.5C 482.5,359.5 476.5,359.5 470.5,359.5C 470.5,393.5 470.5,427.5 470.5,461.5C 470.167,461.5 469.833,461.5 469.5,461.5C 469.5,427.167 469.5,392.833 469.5,358.5C 476.354,358.176 483.021,358.509 489.5,359.5 Z"/></g>
<g><path style="opacity:1" fill="#4a4a4a" d="M 488.5,359.5 C 488.833,359.5 489.167,359.5 489.5,359.5C 489.179,364.695 489.513,369.695 490.5,374.5C 490.44,375.043 490.107,375.376 489.5,375.5C 488.505,370.208 488.172,364.875 488.5,359.5 Z"/></g>
<g><path style="opacity:1" fill="#565656" d="M 745.5,358.5 C 752.167,358.5 758.833,358.5 765.5,358.5C 765.5,393.167 765.5,427.833 765.5,462.5C 758.833,462.5 752.167,462.5 745.5,462.5C 745.5,427.833 745.5,393.167 745.5,358.5 Z"/></g>
<g><path style="opacity:1" fill="#101110" d="M 746.5,359.5 C 752.5,359.5 758.5,359.5 764.5,359.5C 764.5,393.5 764.5,427.5 764.5,461.5C 758.5,461.5 752.5,461.5 746.5,461.5C 746.5,427.5 746.5,393.5 746.5,359.5 Z"/></g>
<g><path style="opacity:1" fill="#141414" d="M 542.5,434.5 C 556.88,435.377 562.047,442.71 558,456.5C 550.299,465.344 542.299,465.677 534,457.5C 529.024,446.806 531.857,439.139 542.5,434.5 Z"/></g>
<g><path style="opacity:1" fill="#6d6d6d" d="M 489.5,406.5 C 489.5,425.167 489.5,443.833 489.5,462.5C 482.646,462.824 475.979,462.491 469.5,461.5C 469.833,461.5 470.167,461.5 470.5,461.5C 476.5,461.5 482.5,461.5 488.5,461.5C 488.17,442.992 488.503,424.659 489.5,406.5 Z"/></g>
<g><path style="opacity:1" fill="#878ebb" d="M 303.5,482.5 C 304.777,483.694 305.444,485.36 305.5,487.5C 305.167,489.167 304.833,490.833 304.5,492.5C 303.513,489.232 303.18,485.898 303.5,482.5 Z"/></g>
<g><path style="opacity:1" fill="#3f5299" d="M 354.5,483.5 C 352.142,483.253 350.142,483.919 348.5,485.5C 348.414,484.504 348.748,483.671 349.5,483C 351.387,482.22 353.054,482.387 354.5,483.5 Z"/></g>
<g><path style="opacity:1" fill="#37559e" d="M 397.5,487.5 C 395.833,487.5 394.167,487.5 392.5,487.5C 392.768,489.099 392.434,490.432 391.5,491.5C 391.5,488.5 391.5,485.5 391.5,482.5C 393.527,482.338 395.527,482.505 397.5,483C 395.866,483.494 394.199,483.66 392.5,483.5C 392.5,484.5 392.5,485.5 392.5,486.5C 394.415,486.216 396.081,486.549 397.5,487.5 Z"/></g>
<g><path style="opacity:1" fill="#4e6daf" d="M 427.5,482.5 C 429.527,482.338 431.527,482.505 433.5,483C 431.866,483.494 430.199,483.66 428.5,483.5C 428.5,484.5 428.5,485.5 428.5,486.5C 435.167,486.833 435.167,487.167 428.5,487.5C 428.5,488.5 428.5,489.5 428.5,490.5C 430.288,490.215 431.955,490.548 433.5,491.5C 431.604,492.466 429.604,492.799 427.5,492.5C 427.5,489.167 427.5,485.833 427.5,482.5 Z"/></g>
<g><path style="opacity:1" fill="#416fb4" d="M 478.5,482.5 C 479.434,483.568 479.768,484.901 479.5,486.5C 481.167,486.5 482.833,486.5 484.5,486.5C 485.788,488.092 485.788,488.425 484.5,487.5C 482.833,487.5 481.167,487.5 479.5,487.5C 479.66,489.199 479.494,490.866 479,492.5C 478.502,489.183 478.335,485.85 478.5,482.5 Z"/></g>
<g><path style="opacity:1" fill="#7094c9" d="M 497.5,482.5 C 499.527,482.338 501.527,482.505 503.5,483C 501.866,483.494 500.199,483.66 498.5,483.5C 498.5,484.5 498.5,485.5 498.5,486.5C 504.167,486.664 504.5,486.997 499.5,487.5C 499.5,488.5 499.5,489.5 499.5,490.5C 501.288,490.215 502.955,490.548 504.5,491.5C 502.257,492.474 499.924,492.808 497.5,492.5C 497.5,489.167 497.5,485.833 497.5,482.5 Z"/></g>
<g><path style="opacity:1" fill="#4b84c5" d="M 548.5,483.5 C 552.967,482.138 554.633,482.138 553.5,483.5C 553.167,495.5 552.833,495.5 552.5,483.5C 551.167,483.5 549.833,483.5 548.5,483.5 Z"/></g>
<g><path style="opacity:1" fill="#72a1d5" d="M 567.5,482.5 C 568.434,483.568 568.768,484.901 568.5,486.5C 570.167,486.5 571.833,486.5 573.5,486.5C 573.238,485.022 573.571,483.689 574.5,482.5C 575.657,485.784 575.824,489.118 575,492.5C 573.731,491.095 573.231,489.429 573.5,487.5C 571.833,487.5 570.167,487.5 568.5,487.5C 568.66,489.199 568.494,490.866 568,492.5C 567.502,489.183 567.335,485.85 567.5,482.5 Z"/></g>
<g><path style="opacity:1" fill="#708cc1" d="M 444.5,482.5 C 452.272,481.266 454.605,484.099 451.5,491C 449.376,492.582 447.21,492.749 445,491.5C 444.502,488.518 444.335,485.518 444.5,482.5 Z"/></g>
<g><path style="opacity:1" fill="#f9fafc" d="M 446.5,483.5 C 450.935,483.752 452.268,485.919 450.5,490C 449.207,490.49 447.873,490.657 446.5,490.5C 446.5,488.167 446.5,485.833 446.5,483.5 Z"/></g>
<g><path style="opacity:1" fill="#5b66a5" d="M 330.5,482.5 C 332.5,482.5 334.5,482.5 336.5,482.5C 336.5,484.167 336.5,485.833 336.5,487.5C 332.956,487.239 331.122,488.905 331,492.5C 330.502,489.183 330.335,485.85 330.5,482.5 Z"/></g>
<g><path style="opacity:1" fill="#f0f1f7" d="M 331.5,483.5 C 336.639,484.941 336.639,485.941 331.5,486.5C 331.5,485.5 331.5,484.5 331.5,483.5 Z"/></g>
<g><path style="opacity:1" fill="#7280b5" d="M 354.5,483.5 C 357.247,484.973 358.081,487.306 357,490.5C 355.401,492.036 353.567,492.536 351.5,492C 355.367,490.235 356.367,487.401 354.5,483.5 Z"/></g>
<g><path style="opacity:1" fill="#5e77b3" d="M 409.5,482.5 C 413.838,482.622 414.172,482.955 410.5,483.5C 410.5,484.5 410.5,485.5 410.5,486.5C 411.833,486.5 413.167,486.5 414.5,486.5C 414.351,485.448 414.517,484.448 415,483.5C 415.651,485.235 415.485,486.902 414.5,488.5C 415.04,489.748 415.707,490.915 416.5,492C 415.833,492.667 415.167,492.667 414.5,492C 412.305,487.304 410.805,487.471 410,492.5C 409.502,489.183 409.335,485.85 409.5,482.5 Z"/></g>
<g><path style="opacity:1" fill="#759fd0" d="M 534.5,482.5 C 536.369,484.635 537.036,487.302 536.5,490.5C 537.978,490.238 539.311,490.571 540.5,491.5C 538.604,492.466 536.604,492.799 534.5,492.5C 534.5,489.167 534.5,485.833 534.5,482.5 Z"/></g>
<g><path style="opacity:1" fill="#75b3e6" d="M 671.5,482.5 C 673.288,482.215 674.955,482.548 676.5,483.5C 674.744,483.36 673.078,483.86 671.5,485C 673.466,486.46 675.132,488.127 676.5,490C 674.954,492.386 672.954,492.886 670.5,491.5C 671.274,490.289 672.107,490.289 673,491.5C 673.692,490.975 674.192,490.308 674.5,489.5C 670.975,488.127 669.975,485.794 671.5,482.5 Z"/></g>
<g><path style="opacity:1" fill="#628dc7" d="M 516.5,489.5 C 516.369,488.761 516.536,488.094 517,487.5C 518.011,488.337 519.178,488.67 520.5,488.5C 520.646,486.058 519.813,485.391 518,486.5C 517.217,484.681 517.717,483.348 519.5,482.5C 521.583,485.584 522.749,488.918 523,492.5C 521.713,489.855 519.547,488.855 516.5,489.5 Z"/></g>
<g><path style="opacity:1" fill="#81afdd" d="M 602.5,482.5 C 603.5,482.5 604.5,482.5 605.5,482.5C 606.675,485.817 607.508,489.15 608,492.5C 606.492,490.162 604.325,489.162 601.5,489.5C 601.719,490.675 601.386,491.675 600.5,492.5C 600.167,492 599.833,491.5 599.5,491C 600.939,488.295 601.939,485.462 602.5,482.5 Z"/></g>
<g><path style="opacity:1" fill="#81c2ee" d="M 708.5,482.5 C 714.911,481.219 716.578,483.219 713.5,488.5C 714.167,489.5 714.833,490.5 715.5,491.5C 715.167,491.833 714.833,492.167 714.5,492.5C 713.5,491.167 712.5,489.833 711.5,488.5C 710.833,489.833 710.167,491.167 709.5,492.5C 708.513,489.232 708.18,485.898 708.5,482.5 Z"/></g>
<g><path style="opacity:1" fill="#fefffe" d="M 710.5,483.5 C 714.31,484.754 714.31,485.754 710.5,486.5C 710.5,485.5 710.5,484.5 710.5,483.5 Z"/></g>
<g><path style="opacity:1" fill="#5c619f" d="M 286.5,486.5 C 286.222,484.654 286.889,483.32 288.5,482.5C 290.571,485.616 291.738,488.949 292,492.5C 290.492,490.162 288.325,489.162 285.5,489.5C 285.719,490.675 285.386,491.675 284.5,492.5C 283.412,489.992 284.078,487.992 286.5,486.5 Z"/></g>
<g><path style="opacity:1" fill="#ebebf3" d="M 286.5,486.5 C 287.867,485.147 288.867,485.481 289.5,487.5C 287.948,488.798 286.948,488.465 286.5,486.5 Z"/></g>
<g><path style="opacity:1" fill="#6773ad" d="M 348.5,485.5 C 348.472,487.582 349.139,489.416 350.5,491C 348.287,491.456 347.287,490.456 347.5,488C 347.528,486.93 347.861,486.097 348.5,485.5 Z"/></g>
<g><path style="opacity:1" fill="#5b6dab" d="M 375.5,486.5 C 374.883,486.389 374.383,486.056 374,485.5C 373.319,487.895 372.485,490.228 371.5,492.5C 369.219,489.344 368.219,486.011 368.5,482.5C 369.485,484.772 370.319,487.105 371,489.5C 371.516,486.749 372.683,484.416 374.5,482.5C 375.429,483.689 375.762,485.022 375.5,486.5 Z"/></g>
<g><path style="opacity:1" fill="#7bb2e2" d="M 638.5,482.5 C 640.117,484.121 641.284,486.121 642,488.5C 643.423,486.655 644.59,484.655 645.5,482.5C 643.931,495.692 641.598,495.692 638.5,482.5 Z"/></g>
<g><path style="opacity:1" fill="#6477b1" d="M 375.5,486.5 C 376.268,487.263 376.768,488.263 377,489.5C 377.619,486.968 378.619,484.635 380,482.5C 380.312,486.074 379.479,489.407 377.5,492.5C 375.914,490.827 375.247,488.827 375.5,486.5 Z"/></g>
<g><path style="opacity:1" fill="#9baacf" d="M 397.5,487.5 C 396.282,488.161 394.949,488.828 393.5,489.5C 395.274,490.187 396.941,491.02 398.5,492C 395.961,492.796 393.628,492.629 391.5,491.5C 392.434,490.432 392.768,489.099 392.5,487.5C 394.167,487.5 395.833,487.5 397.5,487.5 Z"/></g>
<g><path style="opacity:1" fill="#63a1d9" d="M 619.5,482.5 C 623.838,482.622 624.172,482.955 620.5,483.5C 620.187,486.247 620.52,488.914 621.5,491.5C 626.36,490.222 627.36,487.722 624.5,484C 626.923,483.652 627.923,484.818 627.5,487.5C 627.43,488.772 627.097,489.938 626.5,491C 624.26,491.977 621.927,492.477 619.5,492.5C 619.5,489.167 619.5,485.833 619.5,482.5 Z"/></g>
<g><path style="opacity:1" fill="#7abaea" d="M 689.5,482.5 C 696.211,481.762 698.545,484.595 696.5,491C 687.838,493.501 685.504,490.668 689.5,482.5 Z"/></g>
<g><path style="opacity:1" fill="#f5fafd" d="M 690.5,483.5 C 695.972,484.604 696.805,487.27 693,491.5C 688.149,490.095 687.315,487.429 690.5,483.5 Z"/></g>
<g><path style="opacity:1" fill="#7599cd" d="M 516.5,489.5 C 516.719,490.675 516.386,491.675 515.5,492.5C 514.335,491.14 514.668,490.14 516.5,489.5 Z"/></g>
</svg>
