<svg height="158" viewBox="0 0 615 158" width="615" xmlns="http://www.w3.org/2000/svg" xmlns:xlink="http://www.w3.org/1999/xlink"><linearGradient id="a" x1="0%" x2="100%" y1="50%" y2="100%"><stop offset="0" stop-color="#09a830"/><stop offset="1" stop-color="#cadb0b"/></linearGradient><g fill="none" fill-rule="evenodd"><g transform="translate(40 62)"><path d="m2 0h12v34c0 3.3137085-2.6862915 6-6 6s-6-2.6862915-6-6z" fill="#586d79"/><path d="m16 0h12v34c0 3.3137085-2.6862915 6-6 6s-6-2.6862915-6-6z" fill="#586d79"/><path d="m4 2h8v30h-8z" fill="#fff"/><path d="m18 2h8v29h-8z" fill="#fff"/><path d="m30 0h12v34c0 3.3137085-2.6862915 6-6 6s-6-2.6862915-6-6z" fill="#586d79"/><path d="m32 2h8v19h-8z" fill="#fff"/><path d="m12 22.9020924v10.955715c0 2.209139-1.790861 4-4 4s-4-1.790861-4-4v-11.9742382c2.69478955.7560189 5.42196789 1.1560383 8 1.0185232zm6-1.5533358c1.0787149-.5639767 2.0857897-1.292458 3-2.2066683 1.6206817-1.6206817 3.2413633-3.4602475 5-5.2427873v19.9585064c0 2.209139-1.790861 4-4 4s-4-1.790861-4-4zm22-15.3487566v27.8578074c0 2.209139-1.790861 4-4 4s-4-1.790861-4-4v-24.9684956c2.3030241-1.44769431 4.9160018-2.51817626 8-2.8893118z" fill="url(#a)"/><path d="m0 0h44v2h-44z" fill="#586d79"/></g><text fill="#586d79" font-family="Montserrat-Regular, Montserrat" font-size="64" letter-spacing="-4"><tspan x="94" y="102">Personal Science</tspan></text></g></svg>